<?xml version="1.0" encoding="UTF-8"?>
<svg xmlns="http://www.w3.org/2000/svg" xmlns:xlink="http://www.w3.org/1999/xlink" width="33px" height="24px" viewBox="0 0 33 24" version="1.1">
<g id="surface1">
<path style=" stroke:none;fill-rule:nonzero;fill:rgb(0%,0%,0%);fill-opacity:1;" d="M 21.082031 9.109375 C 21.640625 9.324219 22.105469 9.640625 22.542969 10.007812 C 22.992188 10.382812 23.394531 10.804688 23.707031 11.304688 C 24.152344 12.027344 24.1875 12.789062 23.785156 13.542969 C 23.394531 14.277344 22.765625 14.675781 21.949219 14.679688 C 18.292969 14.691406 14.636719 14.691406 10.980469 14.679688 C 10.101562 14.675781 9.4375 14.238281 9.066406 13.417969 C 8.695312 12.605469 8.789062 11.804688 9.34375 11.113281 C 9.871094 10.453125 10.476562 9.867188 11.207031 9.441406 C 11.417969 9.320312 11.636719 9.214844 11.855469 9.101562 C 11.960938 9.289062 12.050781 9.460938 12.15625 9.617188 C 12.242188 9.746094 12.347656 9.859375 12.453125 9.96875 C 12.671875 10.191406 12.917969 10.304688 13.25 10.304688 C 15.453125 10.289062 17.652344 10.292969 19.851562 10.300781 C 20.035156 10.300781 20.179688 10.238281 20.316406 10.132812 C 20.660156 9.871094 20.902344 9.527344 21.082031 9.109375 Z M 22.445312 11.136719 C 22.1875 11.113281 21.957031 11.074219 21.726562 11.074219 C 18.175781 11.070312 14.628906 11.070312 11.078125 11.074219 C 10.886719 11.074219 10.699219 11.117188 10.507812 11.140625 C 10.890625 11.535156 11.0625 11.976562 11.0625 12.492188 C 11.0625 13.011719 10.882812 13.453125 10.460938 13.835938 C 10.675781 13.867188 10.835938 13.910156 10.992188 13.910156 C 14.636719 13.914062 18.277344 13.914062 21.917969 13.910156 C 22.085938 13.910156 22.253906 13.855469 22.449219 13.824219 C 21.675781 12.972656 21.675781 12.160156 22.445312 11.136719 Z M 22.445312 11.136719 "/>
<path style=" stroke:none;fill-rule:nonzero;fill:rgb(0%,0%,0%);fill-opacity:1;" d="M 16.308594 23.324219 C 15.664062 23.324219 15.015625 23.324219 14.371094 23.324219 C 13.734375 23.324219 13.253906 22.859375 13.246094 22.234375 C 13.238281 21.601562 13.714844 21.109375 14.355469 21.109375 C 15.664062 21.105469 16.96875 21.105469 18.273438 21.109375 C 18.914062 21.109375 19.398438 21.605469 19.390625 22.230469 C 19.382812 22.855469 18.902344 23.320312 18.269531 23.324219 C 17.941406 23.328125 17.617188 23.324219 17.289062 23.324219 C 16.960938 23.324219 16.636719 23.324219 16.308594 23.324219 Z M 15.007812 22.230469 C 15.007812 21.90625 14.839844 21.710938 14.566406 21.707031 C 14.28125 21.707031 14.109375 21.90625 14.113281 22.238281 C 14.113281 22.558594 14.285156 22.75 14.5625 22.75 C 14.839844 22.746094 15.007812 22.550781 15.007812 22.230469 Z M 16.503906 22.21875 C 16.5 22.542969 16.664062 22.738281 16.941406 22.746094 C 17.226562 22.753906 17.402344 22.558594 17.402344 22.226562 C 17.402344 21.90625 17.234375 21.710938 16.957031 21.707031 C 16.683594 21.703125 16.507812 21.902344 16.503906 22.21875 Z M 18.546875 21.988281 C 18.488281 21.875 18.457031 21.742188 18.410156 21.734375 C 18.226562 21.710938 18.039062 21.726562 17.847656 21.726562 C 17.828125 21.9375 17.8125 22.125 17.796875 22.316406 C 17.941406 22.335938 18.066406 22.347656 18.195312 22.363281 C 18.191406 22.386719 18.191406 22.414062 18.191406 22.4375 C 18.070312 22.4375 17.949219 22.4375 17.820312 22.4375 C 17.792969 22.519531 17.773438 22.597656 17.734375 22.734375 C 17.957031 22.722656 18.152344 22.738281 18.332031 22.699219 C 18.480469 22.664062 18.539062 22.523438 18.527344 22.367188 C 18.515625 22.214844 18.417969 22.144531 18.285156 22.113281 C 18.230469 22.101562 18.171875 22.089844 18.113281 22.074219 C 18.117188 22.058594 18.117188 22.039062 18.121094 22.023438 C 18.238281 22.015625 18.355469 22.003906 18.546875 21.988281 Z M 15.800781 22.363281 C 15.800781 22.386719 15.800781 22.40625 15.800781 22.429688 C 15.746094 22.441406 15.691406 22.464844 15.636719 22.464844 C 15.566406 22.46875 15.5 22.449219 15.421875 22.441406 C 15.398438 22.527344 15.378906 22.601562 15.339844 22.742188 C 15.570312 22.726562 15.765625 22.734375 15.945312 22.691406 C 16.089844 22.660156 16.140625 22.519531 16.132812 22.375 C 16.125 22.226562 16.035156 22.148438 15.898438 22.117188 C 15.839844 22.105469 15.785156 22.09375 15.726562 22.082031 C 15.726562 22.0625 15.726562 22.042969 15.726562 22.023438 C 15.847656 22.015625 15.972656 22.003906 16.089844 21.996094 C 16.089844 21.898438 16.089844 21.820312 16.089844 21.722656 C 15.902344 21.722656 15.730469 21.71875 15.554688 21.726562 C 15.515625 21.730469 15.457031 21.777344 15.449219 21.808594 C 15.425781 21.976562 15.414062 22.148438 15.398438 22.339844 C 15.496094 22.339844 15.558594 22.335938 15.625 22.339844 C 15.683594 22.34375 15.742188 22.355469 15.800781 22.363281 Z M 15.800781 22.363281 "/>
<path style=" stroke:none;fill-rule:nonzero;fill:rgb(0%,0%,0%);fill-opacity:1;" d="M 18.1875 6.28125 C 18.285156 6.308594 18.390625 6.328125 18.484375 6.367188 C 19.042969 6.613281 19.53125 6.96875 19.917969 7.453125 C 20.433594 8.101562 20.058594 9.128906 19.25 9.28125 C 19.003906 9.328125 18.785156 9.242188 18.601562 9.074219 C 18.105469 8.628906 17.71875 8.09375 17.433594 7.480469 C 17.175781 6.933594 17.585938 6.296875 18.1875 6.28125 Z M 18.503906 7.195312 C 18.507812 7.011719 18.363281 6.855469 18.191406 6.851562 C 18.011719 6.84375 17.871094 6.984375 17.867188 7.175781 C 17.863281 7.371094 17.992188 7.515625 18.171875 7.519531 C 18.351562 7.523438 18.496094 7.378906 18.503906 7.195312 Z M 18.503906 7.195312 "/>
<path style=" stroke:none;fill-rule:nonzero;fill:rgb(0%,0%,0%);fill-opacity:1;" d="M 14.542969 6.28125 C 15.078125 6.285156 15.53125 6.976562 15.285156 7.457031 C 14.984375 8.046875 14.621094 8.582031 14.148438 9.03125 C 13.777344 9.382812 13.382812 9.378906 12.988281 9.046875 C 12.464844 8.605469 12.363281 7.980469 12.753906 7.492188 C 13.152344 6.984375 13.652344 6.601562 14.246094 6.359375 C 14.339844 6.320312 14.445312 6.304688 14.542969 6.28125 Z M 14.828125 7.183594 C 14.828125 6.996094 14.6875 6.851562 14.511719 6.851562 C 14.335938 6.855469 14.195312 7.003906 14.195312 7.1875 C 14.199219 7.375 14.339844 7.523438 14.515625 7.523438 C 14.695312 7.519531 14.828125 7.375 14.828125 7.183594 Z M 14.828125 7.183594 "/>
<path style=" stroke:none;fill-rule:nonzero;fill:rgb(0%,0%,0%);fill-opacity:1;" d="M 11.5 6.640625 C 11.21875 6.125 10.894531 5.636719 11.074219 5.042969 C 11.265625 4.414062 11.726562 4.007812 12.308594 3.753906 C 12.628906 3.613281 12.960938 3.585938 13.304688 3.664062 C 13.738281 3.761719 13.976562 4.0625 14.140625 4.460938 C 14.191406 4.589844 14.109375 4.621094 14.019531 4.664062 C 13.210938 5.023438 12.492188 5.523438 11.886719 6.1875 C 11.761719 6.324219 11.644531 6.46875 11.5 6.640625 Z M 11.5 6.640625 "/>
<path style=" stroke:none;fill-rule:nonzero;fill:rgb(0%,0%,0%);fill-opacity:1;" d="M 20.867188 6.644531 C 20.425781 6.070312 19.941406 5.597656 19.367188 5.230469 C 19.039062 5.023438 18.695312 4.84375 18.351562 4.671875 C 18.21875 4.601562 18.203125 4.542969 18.257812 4.410156 C 18.53125 3.753906 19.128906 3.472656 19.863281 3.6875 C 20.464844 3.859375 20.90625 4.246094 21.210938 4.804688 C 21.347656 5.054688 21.382812 5.320312 21.320312 5.601562 C 21.242188 5.972656 21.085938 6.304688 20.867188 6.644531 Z M 20.867188 6.644531 "/>
<path style=" stroke:none;fill-rule:nonzero;fill:rgb(0%,0%,0%);fill-opacity:1;" d="M 19.476562 17.308594 C 19.464844 16.664062 19.675781 16.113281 20.164062 15.691406 C 20.328125 15.550781 20.503906 15.460938 20.71875 15.496094 C 21.164062 15.566406 21.609375 15.636719 22.054688 15.707031 C 22.207031 15.730469 22.363281 15.75 22.519531 15.773438 C 22.917969 15.832031 23.222656 16.035156 23.429688 16.394531 C 23.507812 16.527344 23.585938 16.65625 23.671875 16.785156 C 23.914062 17.15625 23.792969 17.617188 23.378906 17.75 C 23.039062 17.859375 22.679688 17.894531 22.328125 17.972656 C 22.175781 18.007812 22.011719 18.046875 21.875 18.121094 C 21.308594 18.4375 20.722656 18.582031 20.089844 18.367188 C 19.648438 18.222656 19.511719 18.042969 19.476562 17.570312 C 19.472656 17.484375 19.476562 17.394531 19.476562 17.308594 Z M 22.125 17.585938 C 22.542969 17.585938 22.953125 17.53125 23.335938 17.34375 C 23.46875 17.28125 23.488281 17.152344 23.398438 17.023438 C 23.296875 16.875 23.199219 16.722656 23.105469 16.570312 C 22.976562 16.351562 22.792969 16.199219 22.550781 16.160156 C 21.953125 16.058594 21.351562 15.964844 20.75 15.894531 C 20.628906 15.878906 20.46875 15.945312 20.363281 16.027344 C 19.824219 16.46875 19.753906 17.183594 19.871094 17.75 C 19.886719 17.820312 19.980469 17.902344 20.054688 17.933594 C 20.53125 18.15625 21.007812 18.109375 21.472656 17.898438 C 21.804688 17.746094 21.902344 17.546875 21.8125 17.183594 C 21.78125 17.0625 21.75 16.9375 21.898438 16.90625 C 22.039062 16.875 22.082031 17.011719 22.097656 17.125 C 22.121094 17.269531 22.117188 17.417969 22.125 17.585938 Z M 22.125 17.585938 "/>
<path style=" stroke:none;fill-rule:nonzero;fill:rgb(0%,0%,0%);fill-opacity:1;" d="M 14.925781 15.804688 C 15.097656 15.816406 15.269531 15.804688 15.433594 15.839844 C 15.976562 15.960938 16.339844 16.515625 16.28125 17.113281 C 16.21875 17.730469 15.777344 18.160156 15.195312 18.164062 C 14.992188 18.167969 14.789062 18.167969 14.589844 18.164062 C 14.328125 18.160156 14.175781 18.019531 14.171875 17.761719 C 14.160156 17.253906 14.160156 16.742188 14.171875 16.234375 C 14.175781 15.957031 14.328125 15.820312 14.59375 15.816406 C 14.703125 15.8125 14.816406 15.816406 14.925781 15.816406 C 14.925781 15.8125 14.925781 15.808594 14.925781 15.804688 Z M 14.960938 17.414062 C 15.207031 17.453125 15.386719 17.382812 15.476562 17.207031 C 15.5625 17.039062 15.566406 16.867188 15.4375 16.71875 C 15.3125 16.570312 15.152344 16.503906 14.960938 16.566406 C 14.960938 16.859375 14.960938 17.140625 14.960938 17.414062 Z M 14.960938 17.414062 "/>
<path style=" stroke:none;fill-rule:nonzero;fill:rgb(0%,0%,0%);fill-opacity:1;" d="M 13.96875 16.996094 C 13.964844 17.679688 13.449219 18.207031 12.785156 18.203125 C 12.128906 18.203125 11.605469 17.660156 11.609375 16.984375 C 11.613281 16.300781 12.148438 15.765625 12.816406 15.773438 C 13.464844 15.785156 13.976562 16.324219 13.96875 16.996094 Z M 12.382812 16.980469 C 12.378906 17.226562 12.570312 17.433594 12.808594 17.4375 C 13.046875 17.441406 13.246094 17.242188 13.25 17 C 13.257812 16.753906 13.066406 16.550781 12.824219 16.542969 C 12.589844 16.535156 12.386719 16.738281 12.382812 16.980469 Z M 12.382812 16.980469 "/>
<path style=" stroke:none;fill-rule:nonzero;fill:rgb(0%,0%,0%);fill-opacity:1;" d="M 16.375 17.734375 C 16.390625 17.683594 16.40625 17.605469 16.4375 17.53125 C 16.652344 17.058594 16.871094 16.585938 17.089844 16.113281 C 17.175781 15.929688 17.277344 15.773438 17.507812 15.773438 C 17.734375 15.777344 17.835938 15.9375 17.917969 16.121094 C 18.140625 16.601562 18.363281 17.078125 18.574219 17.5625 C 18.71875 17.890625 18.515625 18.214844 18.199219 18.15625 C 18.101562 18.136719 17.980469 18.066406 17.929688 17.984375 C 17.855469 17.855469 17.769531 17.828125 17.644531 17.835938 C 17.554688 17.84375 17.460938 17.84375 17.371094 17.835938 C 17.234375 17.820312 17.144531 17.859375 17.070312 17.992188 C 16.972656 18.160156 16.800781 18.203125 16.625 18.140625 C 16.457031 18.082031 16.390625 17.941406 16.375 17.734375 Z M 17.648438 17.359375 C 17.601562 17.25 17.558594 17.15625 17.5 17.035156 C 17.445312 17.15625 17.40625 17.25 17.355469 17.359375 C 17.464844 17.359375 17.542969 17.359375 17.648438 17.359375 Z M 17.648438 17.359375 "/>
<path style=" stroke:none;fill-rule:nonzero;fill:rgb(0%,0%,0%);fill-opacity:1;" d="M 18.527344 2.078125 C 18.441406 2.179688 18.382812 2.3125 18.292969 2.335938 C 18.195312 2.363281 18.042969 2.320312 17.96875 2.25 C 17.664062 1.960938 17.335938 1.730469 16.9375 1.617188 C 16.144531 1.390625 15.441406 1.582031 14.816406 2.113281 C 14.761719 2.160156 14.710938 2.214844 14.660156 2.261719 C 14.5 2.40625 14.371094 2.414062 14.246094 2.285156 C 14.121094 2.15625 14.109375 1.976562 14.242188 1.835938 C 14.710938 1.316406 15.273438 0.972656 15.964844 0.882812 C 16.90625 0.761719 17.695312 1.09375 18.347656 1.785156 C 18.414062 1.859375 18.457031 1.960938 18.527344 2.078125 Z M 18.527344 2.078125 "/>
<path style=" stroke:none;fill-rule:nonzero;fill:rgb(0%,0%,0%);fill-opacity:1;" d="M 10.558594 16.359375 C 10.65625 16.222656 10.738281 16.105469 10.824219 15.988281 C 10.96875 15.796875 11.179688 15.757812 11.355469 15.886719 C 11.53125 16.015625 11.566406 16.234375 11.441406 16.4375 C 11.394531 16.511719 11.351562 16.589844 11.296875 16.652344 C 11.03125 16.964844 10.894531 17.308594 10.941406 17.734375 C 10.96875 17.996094 10.789062 18.167969 10.558594 18.164062 C 10.328125 18.160156 10.144531 17.988281 10.171875 17.730469 C 10.214844 17.304688 10.085938 16.960938 9.820312 16.648438 C 9.757812 16.574219 9.699219 16.488281 9.652344 16.402344 C 9.550781 16.210938 9.601562 16 9.765625 15.882812 C 9.933594 15.761719 10.152344 15.796875 10.285156 15.972656 C 10.335938 16.035156 10.378906 16.105469 10.421875 16.167969 C 10.464844 16.226562 10.503906 16.285156 10.558594 16.359375 Z M 10.558594 16.359375 "/>
<path style=" stroke:none;fill-rule:nonzero;fill:rgb(0%,0%,0%);fill-opacity:1;" d="M 16.304688 2.023438 C 16.824219 2.039062 17.261719 2.222656 17.617188 2.59375 C 17.773438 2.757812 17.789062 2.953125 17.652344 3.089844 C 17.519531 3.222656 17.382812 3.207031 17.210938 3.039062 C 16.6875 2.527344 15.945312 2.53125 15.417969 3.046875 C 15.257812 3.199219 15.109375 3.21875 14.988281 3.097656 C 14.851562 2.964844 14.851562 2.773438 14.996094 2.617188 C 15.355469 2.226562 15.800781 2.035156 16.304688 2.023438 Z M 16.304688 2.023438 "/>
<path style=" stroke:none;fill-rule:nonzero;fill:rgb(0%,0%,0%);fill-opacity:1;" d="M 16.394531 9.296875 C 16.175781 9.53125 15.890625 9.605469 15.582031 9.621094 C 15.441406 9.628906 15.304688 9.597656 15.300781 9.421875 C 15.296875 9.257812 15.425781 9.230469 15.558594 9.207031 C 15.714844 9.179688 15.878906 9.144531 16.023438 9.074219 C 16.128906 9.023438 16.191406 8.921875 16.082031 8.78125 C 15.960938 8.621094 15.980469 8.460938 16.105469 8.328125 C 16.238281 8.1875 16.449219 8.167969 16.605469 8.285156 C 16.746094 8.386719 16.789062 8.554688 16.714844 8.730469 C 16.636719 8.914062 16.671875 9.042969 16.851562 9.113281 C 16.980469 9.167969 17.125 9.1875 17.265625 9.207031 C 17.402344 9.230469 17.519531 9.273438 17.507812 9.4375 C 17.492188 9.601562 17.367188 9.625 17.230469 9.621094 C 16.894531 9.609375 16.722656 9.542969 16.394531 9.296875 Z M 16.394531 9.296875 "/>
<path style=" stroke:none;fill-rule:nonzero;fill:rgb(0%,0%,0%);fill-opacity:1;" d="M 15.402344 19.539062 C 15.402344 19.738281 15.25 19.894531 15.058594 19.898438 C 14.851562 19.902344 14.695312 19.75 14.695312 19.539062 C 14.695312 19.34375 14.847656 19.179688 15.035156 19.171875 C 15.230469 19.167969 15.398438 19.335938 15.402344 19.539062 Z M 15.402344 19.539062 "/>
<path style=" stroke:none;fill-rule:nonzero;fill:rgb(0%,0%,0%);fill-opacity:1;" d="M 16.300781 19.175781 C 16.496094 19.183594 16.65625 19.359375 16.648438 19.554688 C 16.636719 19.757812 16.484375 19.902344 16.285156 19.898438 C 16.082031 19.898438 15.9375 19.734375 15.945312 19.523438 C 15.953125 19.324219 16.113281 19.167969 16.300781 19.175781 Z M 16.300781 19.175781 "/>
<path style=" stroke:none;fill-rule:nonzero;fill:rgb(0%,0%,0%);fill-opacity:1;" d="M 17.886719 19.53125 C 17.894531 19.742188 17.742188 19.898438 17.539062 19.902344 C 17.347656 19.902344 17.195312 19.746094 17.1875 19.546875 C 17.183594 19.347656 17.34375 19.171875 17.539062 19.171875 C 17.726562 19.171875 17.882812 19.332031 17.886719 19.53125 Z M 17.886719 19.53125 "/>
<path style=" stroke:none;fill-rule:nonzero;fill:rgb(0%,0%,0%);fill-opacity:1;" d="M 18.785156 12.621094 C 18.785156 12.433594 18.785156 12.25 18.785156 12.066406 C 18.78125 11.933594 18.820312 11.828125 18.964844 11.832031 C 19.097656 11.835938 19.125 11.945312 19.125 12.0625 C 19.125 12.40625 19.132812 12.746094 19.121094 13.089844 C 19.117188 13.160156 19.058594 13.285156 19.011719 13.292969 C 18.945312 13.304688 18.839844 13.253906 18.789062 13.195312 C 18.605469 12.976562 18.441406 12.746094 18.21875 12.523438 C 18.21875 12.660156 18.21875 12.800781 18.21875 12.941406 C 18.214844 13.015625 18.234375 13.097656 18.207031 13.160156 C 18.179688 13.222656 18.101562 13.308594 18.054688 13.300781 C 17.992188 13.292969 17.890625 13.210938 17.886719 13.15625 C 17.875 12.769531 17.875 12.378906 17.882812 11.992188 C 17.886719 11.9375 17.957031 11.851562 18.011719 11.839844 C 18.0625 11.828125 18.152344 11.871094 18.191406 11.917969 C 18.378906 12.148438 18.554688 12.390625 18.738281 12.625 C 18.753906 12.625 18.769531 12.621094 18.785156 12.621094 Z M 18.785156 12.621094 "/>
<path style=" stroke:none;fill-rule:nonzero;fill:rgb(0%,0%,0%);fill-opacity:1;" d="M 16.644531 12.53125 C 16.644531 12.714844 16.644531 12.898438 16.644531 13.082031 C 16.644531 13.207031 16.613281 13.320312 16.464844 13.3125 C 16.328125 13.304688 16.304688 13.199219 16.304688 13.082031 C 16.308594 12.746094 16.296875 12.410156 16.3125 12.074219 C 16.3125 11.996094 16.371094 11.859375 16.417969 11.855469 C 16.492188 11.84375 16.601562 11.902344 16.652344 11.964844 C 16.835938 12.179688 17 12.410156 17.210938 12.621094 C 17.210938 12.445312 17.214844 12.265625 17.210938 12.089844 C 17.207031 11.957031 17.226562 11.832031 17.386719 11.832031 C 17.53125 11.832031 17.554688 11.953125 17.554688 12.078125 C 17.554688 12.40625 17.5625 12.734375 17.550781 13.0625 C 17.546875 13.144531 17.488281 13.257812 17.421875 13.296875 C 17.378906 13.320312 17.257812 13.246094 17.207031 13.183594 C 17.027344 12.96875 16.859375 12.738281 16.691406 12.515625 C 16.675781 12.519531 16.660156 12.523438 16.644531 12.53125 Z M 16.644531 12.53125 "/>
<path style=" stroke:none;fill-rule:nonzero;fill:rgb(0%,0%,0%);fill-opacity:1;" d="M 12.300781 13.34375 C 11.984375 13.351562 11.679688 13.136719 11.574219 12.828125 C 11.46875 12.515625 11.570312 12.164062 11.828125 11.964844 C 12.089844 11.757812 12.46875 11.746094 12.726562 11.9375 C 12.777344 11.972656 12.839844 12.019531 12.863281 12.078125 C 12.882812 12.132812 12.882812 12.234375 12.847656 12.269531 C 12.800781 12.316406 12.710938 12.332031 12.644531 12.328125 C 12.601562 12.324219 12.5625 12.265625 12.519531 12.234375 C 12.335938 12.101562 12.117188 12.128906 11.972656 12.296875 C 11.84375 12.449219 11.84375 12.679688 11.964844 12.835938 C 12.101562 13.007812 12.324219 13.046875 12.507812 12.921875 C 12.546875 12.894531 12.578125 12.839844 12.617188 12.835938 C 12.6875 12.828125 12.792969 12.820312 12.832031 12.863281 C 12.871094 12.90625 12.878906 13.027344 12.847656 13.085938 C 12.769531 13.234375 12.515625 13.339844 12.300781 13.34375 Z M 12.300781 13.34375 "/>
<path style=" stroke:none;fill-rule:nonzero;fill:rgb(0%,0%,0%);fill-opacity:1;" d="M 14.070312 12.734375 C 13.875 12.734375 13.714844 12.734375 13.53125 12.734375 C 13.53125 12.867188 13.550781 12.988281 13.523438 13.101562 C 13.507812 13.179688 13.425781 13.242188 13.371094 13.3125 C 13.3125 13.246094 13.210938 13.183594 13.207031 13.113281 C 13.191406 12.753906 13.191406 12.390625 13.207031 12.027344 C 13.210938 11.960938 13.3125 11.894531 13.371094 11.828125 C 13.425781 11.898438 13.503906 11.960938 13.523438 12.042969 C 13.550781 12.140625 13.53125 12.253906 13.53125 12.375 C 13.710938 12.375 13.875 12.375 14.070312 12.375 C 14.070312 12.265625 14.046875 12.148438 14.074219 12.042969 C 14.09375 11.964844 14.175781 11.902344 14.226562 11.832031 C 14.285156 11.894531 14.394531 11.960938 14.398438 12.027344 C 14.414062 12.390625 14.402344 12.75 14.402344 13.113281 C 14.398438 13.226562 14.351562 13.332031 14.234375 13.304688 C 14.167969 13.289062 14.09375 13.183594 14.074219 13.105469 C 14.046875 12.992188 14.070312 12.867188 14.070312 12.734375 Z M 14.070312 12.734375 "/>
<path style=" stroke:none;fill-rule:nonzero;fill:rgb(0%,0%,0%);fill-opacity:1;" d="M 19.820312 12.402344 C 19.933594 12.402344 20.046875 12.382812 20.152344 12.410156 C 20.210938 12.421875 20.253906 12.503906 20.304688 12.554688 C 20.253906 12.601562 20.207031 12.679688 20.148438 12.691406 C 20.042969 12.714844 19.929688 12.699219 19.808594 12.699219 C 19.808594 12.804688 19.808594 12.886719 19.808594 12.996094 C 19.949219 12.996094 20.085938 12.996094 20.21875 12.996094 C 20.328125 12.996094 20.425781 13.019531 20.425781 13.152344 C 20.429688 13.285156 20.339844 13.316406 20.230469 13.316406 C 20.039062 13.316406 19.851562 13.316406 19.660156 13.316406 C 19.523438 13.316406 19.457031 13.246094 19.457031 13.105469 C 19.457031 12.75 19.457031 12.394531 19.460938 12.039062 C 19.460938 11.902344 19.523438 11.828125 19.660156 11.828125 C 19.851562 11.828125 20.039062 11.828125 20.230469 11.828125 C 20.339844 11.828125 20.429688 11.863281 20.425781 11.992188 C 20.425781 12.128906 20.328125 12.152344 20.21875 12.148438 C 20.140625 12.148438 20.0625 12.15625 19.984375 12.148438 C 19.8125 12.128906 19.761719 12.203125 19.820312 12.402344 Z M 19.820312 12.402344 "/>
<path style=" stroke:none;fill-rule:nonzero;fill:rgb(0%,0%,0%);fill-opacity:1;" d="M 16.042969 13.167969 C 16.015625 13.199219 15.976562 13.285156 15.929688 13.296875 C 15.867188 13.304688 15.785156 13.261719 15.730469 13.21875 C 15.675781 13.175781 15.644531 13.058594 15.59375 13.054688 C 15.425781 13.035156 15.253906 13.042969 15.089844 13.0625 C 15.054688 13.0625 15.035156 13.167969 14.992188 13.199219 C 14.929688 13.246094 14.847656 13.265625 14.773438 13.300781 C 14.746094 13.21875 14.679688 13.125 14.703125 13.066406 C 14.855469 12.683594 15.023438 12.304688 15.195312 11.929688 C 15.269531 11.765625 15.441406 11.75 15.511719 11.898438 C 15.691406 12.285156 15.855469 12.679688 16.023438 13.070312 C 16.03125 13.089844 16.03125 13.109375 16.042969 13.167969 Z M 15.53125 12.742188 C 15.472656 12.601562 15.421875 12.484375 15.355469 12.324219 C 15.292969 12.488281 15.246094 12.609375 15.191406 12.742188 C 15.316406 12.742188 15.410156 12.742188 15.53125 12.742188 Z M 15.53125 12.742188 "/>
<path style=" stroke:none;fill-rule:nonzero;fill:rgb(0%,0%,0%);fill-opacity:1;" d="M 21.054688 12.996094 C 21.203125 12.996094 21.328125 12.976562 21.445312 13 C 21.515625 13.015625 21.617188 13.085938 21.628906 13.148438 C 21.65625 13.273438 21.554688 13.316406 21.441406 13.316406 C 21.265625 13.316406 21.089844 13.316406 20.914062 13.316406 C 20.789062 13.316406 20.722656 13.25 20.722656 13.117188 C 20.71875 12.757812 20.710938 12.394531 20.730469 12.03125 C 20.730469 11.960938 20.832031 11.894531 20.890625 11.828125 C 20.945312 11.898438 21.042969 11.964844 21.046875 12.035156 C 21.0625 12.34375 21.054688 12.648438 21.054688 12.996094 Z M 21.054688 12.996094 "/>
<path style=" stroke:none;fill-rule:nonzero;fill:rgb(0%,0%,0%);fill-opacity:1;" d="M 14.773438 22.21875 C 14.675781 22.324219 14.617188 22.386719 14.558594 22.449219 C 14.511719 22.378906 14.429688 22.3125 14.429688 22.246094 C 14.433594 22.167969 14.507812 22.09375 14.550781 22.015625 C 14.613281 22.074219 14.675781 22.128906 14.773438 22.21875 Z M 14.773438 22.21875 "/>
<path style=" stroke:none;fill-rule:nonzero;fill:rgb(0%,0%,0%);fill-opacity:1;" d="M 17.167969 22.21875 C 17.070312 22.324219 17.011719 22.386719 16.953125 22.449219 C 16.90625 22.382812 16.820312 22.3125 16.824219 22.246094 C 16.824219 22.167969 16.898438 22.09375 16.941406 22.015625 C 17.003906 22.074219 17.066406 22.128906 17.167969 22.21875 Z M 17.167969 22.21875 "/>
<path style=" stroke:none;fill-rule:nonzero;fill:rgb(0%,0%,0%);fill-opacity:1;" d="M 20.980469 16.503906 C 20.945312 16.902344 20.84375 17.253906 20.628906 17.5625 C 20.570312 17.648438 20.492188 17.722656 20.40625 17.78125 C 20.234375 17.898438 20.070312 17.832031 20 17.636719 C 19.84375 17.203125 20.109375 16.347656 20.484375 16.085938 C 20.6875 15.945312 20.871094 16.011719 20.9375 16.25 C 20.964844 16.339844 20.96875 16.433594 20.980469 16.503906 Z M 20.980469 16.503906 "/>
<path style=" stroke:none;fill-rule:nonzero;fill:rgb(0%,0%,0%);fill-opacity:1;" d="M 23.117188 17.011719 C 23.0625 17.027344 23.007812 17.054688 22.953125 17.0625 C 22.855469 17.078125 22.691406 16.894531 22.695312 16.757812 C 22.695312 16.710938 22.757812 16.664062 22.789062 16.617188 C 22.886719 16.710938 22.984375 16.800781 23.082031 16.894531 C 23.09375 16.933594 23.105469 16.972656 23.117188 17.011719 Z M 23.117188 17.011719 "/>
<path style=" stroke:none;fill-rule:nonzero;fill:rgb(0%,0%,0%);fill-opacity:1;" d="M 21.671875 16.359375 C 21.734375 16.273438 21.78125 16.210938 21.828125 16.148438 C 21.867188 16.214844 21.9375 16.28125 21.941406 16.347656 C 21.941406 16.414062 21.875 16.484375 21.835938 16.554688 C 21.789062 16.496094 21.738281 16.4375 21.671875 16.359375 Z M 21.671875 16.359375 "/>
<path style=" stroke:none;fill-rule:nonzero;fill:rgb(0%,0%,0%);fill-opacity:1;" d="M 21.113281 17.375 C 21.0625 17.503906 21.007812 17.628906 20.941406 17.789062 C 20.820312 17.585938 20.867188 17.457031 21.046875 17.347656 C 21.070312 17.359375 21.089844 17.367188 21.113281 17.375 Z M 21.113281 17.375 "/>
</g>
</svg>
