<?xml version="1.0" standalone="yes"?>
<svg xmlns="http://www.w3.org/2000/svg" width="180" height="180">
<path style="fill:#000000; stroke:none;" d="M72 13C76.6506 11.07 80.8726 7.0349 86 6.43056C92.5607 5.65729 97.4668 10.5498 103 13C105.906 -2.44786 69.7978 -2.54285 72 13M78 19C81.1602 17.6993 84.436 15.1024 88 15.3364C91.4932 15.5658 94.6242 18.1341 98 19C98.4415 7.10361 76.3415 7.36584 78 19M50 44C56.9854 39.0987 62.629 32.6499 71 30C68.7797 19.2314 55.3416 20.6279 49.6528 28.1049C45.7795 33.1957 47.6681 38.7314 50 44M102 29C109.604 33.4849 115.855 38.9719 123 44C125.212 40.0512 127.005 35.5423 125.258 31.0039C121.209 20.4908 107.116 19.376 102 29M71 42.7184C66.3058 44.1519 60.0073 49.0342 58.8079 54.0039C57.4634 59.5747 63.5135 65.2748 68.9853 63.3812C73.7237 61.7414 79.2976 53.9725 79.7168 49.0039C80.136 44.0358 75.4358 41.3637 71 42.7184M99.1096 43.0316C89.6688 48.2288 103.976 67.764 112.891 62.6813C124.417 56.1097 108.176 38.0405 99.1096 43.0316z"/>
<path style="fill:#ffffff; stroke:none;" d="M72 46C71.7979 47.8499 71.7979 49.1501 72 51C75.8436 49.7225 75.8436 47.2775 72 46M100 46L100 51C103.844 49.7225 103.844 47.2775 100 46z"/>
<path style="fill:#000000; stroke:none;" d="M86 63L80 64C82.3025 67.4467 85.1401 66.4754 88 64C91.362 66.0492 94.49 67.7564 97 64C94.5309 63.5736 92.3546 62.8676 90 62C91.1759 55.0121 85.2798 56.5463 86 63M124 63C121.695 66.5959 119.323 70.1811 114.999 71.4861C111.01 72.69 106.123 72 102 72L78 72C73.0742 72 66.6718 73.0509 62.0008 71.2577C58.1462 69.7779 55.8197 66.4977 54 63C45.0811 65.6245 35.2721 73.3405 31.5332 82C28.2148 89.6855 32.1264 99.7527 40.0008 102.852C48.2519 106.099 60.2434 104 69 104L112 104C119.132 104 126.948 104.898 134 103.786C143.906 102.224 149.354 91.0562 145.853 82C142.47 73.2502 132.806 65.5914 124 63z"/>
<path style="fill:#ffffff; stroke:none;" d="M43 78C47.5636 85.6952 47.5636 90.3048 43 98C56.9755 101.327 73.6598 99 88 99C102.646 99 119.728 101.398 134 98C130.297 89.6991 131.019 86.334 134 78C119.728 74.6022 102.646 77 88 77C73.6599 77 56.9754 74.6727 43 78z"/>
<path style="fill:#000000; stroke:none;" d="M62 91C57.4895 90.4444 54.8457 91.2423 54 86L61 87C57.3715 76.6823 44.8344 91.6613 56.0394 93.7145C56.9903 93.8887 57.9511 93.6537 58.8627 93.4267C60.3759 93.0498 60.9765 92.0442 62 91M64 83L64 94L66 94L66 90L71 90L70 94C74.5809 93.0184 73 86.8838 73 83C70.9653 84.2259 70.6735 84.7026 70 87L66 87L66 83L64 83M79 83C77.4995 86.6583 75.9167 90.1405 75 94C78.8991 92.8232 81.1642 92.5822 85 94C84.6015 90.1057 83.0651 86.7346 82 83L79 83M88 83L88 94L90 94L90 88C92.1845 90.6093 93.9416 92.5172 97 94L97 83L95 83L95 89L90 83L88 83M100 83L100 94L102 94L102 88C104.184 90.6093 105.942 92.5172 109 94L109 83L107 83L107 89L102 83L100 83M112 83L112 94L119 94L119 92L114 92L114 90L118 90L118 87L114 87C116.234 85.8239 117.612 85.0727 119 83L112 83M122 83L122 94L129 94L129 92L124 92L124 83L122 83z"/>
<path style="fill:#ffffff; stroke:none;" d="M80 87L79 90L82 90C81.3087 88.6116 81.0154 88.1393 80 87z"/>
<path style="fill:#000000; stroke:none;" d="M119.04 110.948C111.863 113.489 108.596 127.566 116.059 131.427C122.182 134.595 133.989 130.318 139.981 127.852C146.616 125.122 144.69 118.242 139.895 114.514C135.873 111.386 123.915 109.221 119.04 110.948M58.0046 112.782C47.6461 116.28 52.1902 133.471 62.9846 130.332C74.4804 126.989 68.7942 109.139 58.0046 112.782M96.1698 113.176C92.6139 113.664 87.1104 125.386 89.1327 128.378C90.82 130.874 95.4458 128.334 97.8302 128.583C99.2277 128.73 100.588 129.594 102.021 129.423C104.362 129.143 104.676 126.925 104.332 124.981C103.738 121.632 100.707 112.553 96.1698 113.176M46 130C46.1518 124.868 50.0444 120.859 50.1829 116.149C50.3338 111.015 45.1411 115.145 44 117C42.6874 115.641 37.9755 111.03 36.8272 115.323C36.2208 117.589 38.1394 120.02 38.9336 122C40.7739 126.588 40.3914 129.553 46 130M72.7423 114.028C70.7927 115.605 71.0305 118.765 71.0039 121C70.9774 123.221 70.5444 126.524 72.0278 128.397C74.3137 131.283 81.2824 130.275 83.8665 128.397C93.481 121.409 80.8747 107.448 72.7423 114.028z"/>
<path style="fill:#ffffff; stroke:none;" d="M130 121L132 121L132 126C138.534 125.86 145.919 121.232 136.906 116.175C133.282 114.142 124.063 112.311 120.094 113.782C115.513 115.479 113.129 123.438 116.028 127.486C118.649 131.147 126.602 129.985 128.972 126.575C130.094 124.961 129.939 122.857 130 121z"/>
<path style="fill:#000000; stroke:none;" d="M116 128C122.733 126.063 123.817 120.16 122 114C115.985 116.968 116.004 121.916 116 128M129 116L129 118L131 118L131 116L129 116z"/>
<path style="fill:#ffffff; stroke:none;" d="M59.5887 119.136C56.868 120.959 59.4744 125.976 62.4113 123.917C65.0878 122.041 62.4792 117.199 59.5887 119.136M77 118L77 125C82.0778 123.453 82.0778 119.547 77 118z"/>
<path style="fill:#000000; stroke:none;" d="M137 119L137 122L139 122L139 119L137 119M134.333 121.667C134.278 121.722 134.222 122.778 134.667 122.333C134.722 122.278 134.778 121.222 134.333 121.667z"/>
<path style="fill:#ffffff; stroke:none;" d="M96 122L96 125C96.6961 123.446 96.6961 123.554 96 122z"/>
<path style="fill:#000000; stroke:none;" d="M123 124L122 127C123.766 126.021 123.955 125.778 123 124M75 142C82.9076 143.849 77.951 134.627 75 142M86.6026 139.157C84.8698 140.314 86.6642 143.001 88.3974 141.843C90.1301 140.686 88.3358 137.999 86.6026 139.157M95.8318 139.067C93.8521 140.655 96.4653 143.419 98.3827 141.933C100.43 140.345 97.7176 137.555 95.8318 139.067M70.0154 152.742C62.6909 155.631 62.6909 165.369 70.0154 168.258C73.0595 169.458 76.7972 169 80 169C87.6274 169 98.8578 171.056 105.956 167.991C112.475 165.175 112.35 155.868 105.906 153.009C98.9026 149.903 87.5545 152 80 152C76.7972 152 73.0594 151.542 70.0154 152.742z"/>
<path style="fill:#ffffff; stroke:none;" d="M72.6034 158.086C69.4306 160.257 73.1725 165.438 76.243 162.954C79.0065 160.718 75.5077 156.098 72.6034 158.086M81 157C81.3096 159.247 81.6638 160.174 83 162C81.2032 162 81.4785 162.014 80 163C82.0521 163.874 83.7472 163.953 86 164C85.7893 161.261 85.6975 160.578 83 160C84.7425 158.889 85.1193 158.73 86 157L81 157M90.7315 158.046C87.6422 160.494 91.1917 165.426 94.3858 162.954C97.319 160.683 93.7805 155.631 90.7315 158.046M99 157C99.2107 159.739 99.3025 160.422 102 161C100.258 162.111 99.8807 162.27 99 164L104 164C103.789 161.261 103.697 160.578 101 160C102.742 158.889 103.119 158.73 104 157L99 157z"/>
<path style="fill:#000000; stroke:none;" d="M73 159L73 162L75 162L75 159L73 159M92 159L92 162L94 162L94 159L92 159z"/>
</svg>
