<?xml version="1.0" encoding="UTF-8"?>
<svg xmlns="http://www.w3.org/2000/svg" xmlns:xlink="http://www.w3.org/1999/xlink" width="82px" height="58px" viewBox="0 0 82 58" version="1.1">
<g id="surface1">
<path style=" stroke:none;fill-rule:nonzero;fill:rgb(0%,0%,0%);fill-opacity:1;" d="M 52.386719 22.011719 C 53.769531 22.535156 54.929688 23.300781 56.015625 24.183594 C 57.128906 25.089844 58.132812 26.109375 58.90625 27.320312 C 60.019531 29.070312 60.101562 30.90625 59.105469 32.726562 C 58.128906 34.503906 56.566406 35.46875 54.542969 35.476562 C 45.457031 35.503906 36.371094 35.503906 27.289062 35.476562 C 25.101562 35.46875 23.453125 34.414062 22.523438 32.425781 C 21.605469 30.460938 21.835938 28.53125 23.21875 26.855469 C 24.53125 25.261719 26.035156 23.84375 27.851562 22.8125 C 28.371094 22.519531 28.910156 22.269531 29.453125 21.992188 C 29.722656 22.449219 29.941406 22.863281 30.207031 23.246094 C 30.421875 23.550781 30.679688 23.824219 30.941406 24.085938 C 31.488281 24.632812 32.101562 24.90625 32.929688 24.902344 C 38.394531 24.863281 43.863281 24.875 49.328125 24.890625 C 49.785156 24.890625 50.140625 24.746094 50.488281 24.488281 C 51.339844 23.855469 51.941406 23.023438 52.386719 22.011719 Z M 55.777344 26.917969 C 55.128906 26.859375 54.5625 26.757812 53.992188 26.757812 C 45.167969 26.75 36.347656 26.75 27.523438 26.761719 C 27.054688 26.761719 26.585938 26.863281 26.113281 26.917969 C 27.0625 27.875 27.484375 28.941406 27.488281 30.1875 C 27.492188 31.445312 27.039062 32.515625 25.992188 33.433594 C 26.527344 33.507812 26.921875 33.617188 27.316406 33.617188 C 36.367188 33.625 45.417969 33.625 54.46875 33.613281 C 54.882812 33.613281 55.300781 33.484375 55.785156 33.40625 C 53.863281 31.351562 53.863281 29.382812 55.777344 26.917969 Z M 55.777344 26.917969 "/>
<path style=" stroke:none;fill-rule:nonzero;fill:rgb(0%,0%,0%);fill-opacity:1;" d="M 40.527344 56.367188 C 38.921875 56.367188 37.316406 56.371094 35.710938 56.367188 C 34.125 56.367188 32.9375 55.246094 32.917969 53.738281 C 32.898438 52.199219 34.078125 51.019531 35.675781 51.011719 C 38.917969 51.003906 42.164062 51.003906 45.40625 51.015625 C 47 51.019531 48.207031 52.210938 48.183594 53.726562 C 48.160156 55.234375 46.972656 56.359375 45.394531 56.367188 C 44.582031 56.371094 43.773438 56.367188 42.960938 56.367188 C 42.148438 56.367188 41.339844 56.367188 40.527344 56.367188 Z M 37.289062 53.722656 C 37.292969 52.945312 36.875 52.46875 36.191406 52.460938 C 35.484375 52.457031 35.058594 52.9375 35.066406 53.742188 C 35.070312 54.515625 35.492188 54.980469 36.1875 54.976562 C 36.875 54.972656 37.289062 54.5 37.289062 53.722656 Z M 41.011719 53.699219 C 41.003906 54.480469 41.40625 54.953125 42.09375 54.972656 C 42.804688 54.992188 43.238281 54.515625 43.238281 53.714844 C 43.238281 52.941406 42.824219 52.472656 42.132812 52.460938 C 41.453125 52.449219 41.019531 52.929688 41.011719 53.699219 Z M 46.089844 53.140625 C 45.945312 52.863281 45.867188 52.542969 45.75 52.527344 C 45.292969 52.464844 44.824219 52.5 44.34375 52.5 C 44.300781 53.019531 44.261719 53.46875 44.222656 53.933594 C 44.582031 53.972656 44.894531 54.011719 45.210938 54.046875 C 45.207031 54.105469 45.203125 54.164062 45.199219 54.222656 C 44.898438 54.222656 44.601562 54.222656 44.277344 54.222656 C 44.214844 54.425781 44.164062 54.605469 44.066406 54.945312 C 44.625 54.917969 45.101562 54.949219 45.550781 54.851562 C 45.917969 54.773438 46.066406 54.429688 46.035156 54.050781 C 46.007812 53.6875 45.765625 53.515625 45.4375 53.441406 C 45.296875 53.410156 45.152344 53.382812 45.011719 53.351562 C 45.019531 53.308594 45.023438 53.265625 45.027344 53.222656 C 45.320312 53.199219 45.613281 53.175781 46.089844 53.140625 Z M 39.257812 54.050781 C 39.261719 54.101562 39.261719 54.152344 39.265625 54.203125 C 39.128906 54.234375 38.992188 54.289062 38.855469 54.292969 C 38.683594 54.296875 38.511719 54.257812 38.324219 54.230469 C 38.265625 54.441406 38.214844 54.621094 38.121094 54.960938 C 38.695312 54.921875 39.171875 54.941406 39.625 54.839844 C 39.976562 54.765625 40.101562 54.425781 40.085938 54.070312 C 40.066406 53.714844 39.84375 53.523438 39.507812 53.449219 C 39.363281 53.417969 39.21875 53.390625 39.074219 53.363281 C 39.078125 53.316406 39.078125 53.273438 39.078125 53.226562 C 39.382812 53.203125 39.6875 53.179688 39.984375 53.152344 C 39.984375 52.921875 39.984375 52.734375 39.984375 52.5 C 39.519531 52.5 39.082031 52.488281 38.652344 52.507812 C 38.558594 52.511719 38.40625 52.625 38.390625 52.707031 C 38.328125 53.113281 38.304688 53.527344 38.261719 53.988281 C 38.503906 53.988281 38.664062 53.980469 38.824219 53.988281 C 38.96875 53.996094 39.113281 54.027344 39.257812 54.050781 Z M 39.257812 54.050781 "/>
<path style=" stroke:none;fill-rule:nonzero;fill:rgb(0%,0%,0%);fill-opacity:1;" d="M 45.191406 15.175781 C 45.4375 15.246094 45.695312 15.289062 45.929688 15.386719 C 47.324219 15.980469 48.527344 16.84375 49.488281 18.015625 C 50.773438 19.578125 49.839844 22.058594 47.835938 22.429688 C 47.222656 22.542969 46.683594 22.335938 46.222656 21.933594 C 44.988281 20.851562 44.023438 19.554688 43.316406 18.082031 C 42.675781 16.753906 43.699219 15.214844 45.191406 15.175781 Z M 45.976562 17.386719 C 45.988281 16.949219 45.632812 16.566406 45.199219 16.554688 C 44.753906 16.542969 44.410156 16.882812 44.398438 17.347656 C 44.386719 17.8125 44.710938 18.164062 45.160156 18.175781 C 45.597656 18.1875 45.964844 17.832031 45.976562 17.386719 Z M 45.976562 17.386719 "/>
<path style=" stroke:none;fill-rule:nonzero;fill:rgb(0%,0%,0%);fill-opacity:1;" d="M 36.136719 15.179688 C 37.464844 15.183594 38.589844 16.855469 37.980469 18.019531 C 37.238281 19.445312 36.335938 20.738281 35.160156 21.820312 C 34.230469 22.675781 33.25 22.664062 32.273438 21.859375 C 30.976562 20.792969 30.726562 19.289062 31.6875 18.105469 C 32.683594 16.875 33.925781 15.957031 35.398438 15.363281 C 35.632812 15.273438 35.890625 15.242188 36.136719 15.179688 Z M 36.847656 17.363281 C 36.84375 16.90625 36.5 16.554688 36.058594 16.558594 C 35.621094 16.5625 35.273438 16.925781 35.277344 17.375 C 35.28125 17.828125 35.632812 18.179688 36.070312 18.175781 C 36.519531 18.171875 36.851562 17.828125 36.847656 17.363281 Z M 36.847656 17.363281 "/>
<path style=" stroke:none;fill-rule:nonzero;fill:rgb(0%,0%,0%);fill-opacity:1;" d="M 28.570312 16.050781 C 27.871094 14.804688 27.070312 13.621094 27.515625 12.1875 C 27.992188 10.664062 29.132812 9.683594 30.582031 9.070312 C 31.378906 8.730469 32.207031 8.671875 33.054688 8.855469 C 34.136719 9.085938 34.730469 9.820312 35.132812 10.78125 C 35.265625 11.09375 35.058594 11.171875 34.839844 11.265625 C 32.828125 12.144531 31.039062 13.347656 29.535156 14.953125 C 29.226562 15.285156 28.9375 15.632812 28.570312 16.050781 Z M 28.570312 16.050781 "/>
<path style=" stroke:none;fill-rule:nonzero;fill:rgb(0%,0%,0%);fill-opacity:1;" d="M 51.847656 16.0625 C 50.753906 14.671875 49.550781 13.523438 48.121094 12.640625 C 47.3125 12.140625 46.460938 11.707031 45.605469 11.289062 C 45.269531 11.125 45.234375 10.976562 45.371094 10.65625 C 46.046875 9.070312 47.535156 8.394531 49.359375 8.910156 C 50.847656 9.332031 51.949219 10.265625 52.703125 11.609375 C 53.042969 12.214844 53.128906 12.855469 52.980469 13.535156 C 52.785156 14.433594 52.390625 15.234375 51.847656 16.0625 Z M 51.847656 16.0625 "/>
<path style=" stroke:none;fill-rule:nonzero;fill:rgb(0%,0%,0%);fill-opacity:1;" d="M 48.394531 41.828125 C 48.371094 40.269531 48.894531 38.941406 50.109375 37.921875 C 50.507812 37.582031 50.945312 37.363281 51.484375 37.445312 C 52.589844 37.613281 53.695312 37.789062 54.796875 37.957031 C 55.183594 38.015625 55.570312 38.058594 55.953125 38.117188 C 56.945312 38.261719 57.707031 38.753906 58.222656 39.621094 C 58.414062 39.941406 58.609375 40.257812 58.816406 40.5625 C 59.425781 41.457031 59.121094 42.574219 58.089844 42.894531 C 57.246094 43.15625 56.351562 43.242188 55.484375 43.433594 C 55.097656 43.519531 54.699219 43.609375 54.359375 43.796875 C 52.945312 44.558594 51.492188 44.90625 49.914062 44.390625 C 48.820312 44.035156 48.480469 43.601562 48.398438 42.460938 C 48.382812 42.253906 48.394531 42.042969 48.394531 41.828125 Z M 54.980469 42.5 C 56.015625 42.5 57.035156 42.371094 57.984375 41.914062 C 58.3125 41.757812 58.359375 41.457031 58.136719 41.136719 C 57.886719 40.777344 57.644531 40.414062 57.414062 40.042969 C 57.09375 39.515625 56.640625 39.148438 56.035156 39.050781 C 54.550781 38.808594 53.058594 38.578125 51.5625 38.40625 C 51.257812 38.375 50.855469 38.53125 50.605469 38.734375 C 49.261719 39.800781 49.085938 41.523438 49.378906 42.894531 C 49.417969 43.070312 49.644531 43.261719 49.828125 43.34375 C 51.015625 43.875 52.199219 43.769531 53.359375 43.25 C 54.183594 42.886719 54.425781 42.402344 54.199219 41.523438 C 54.125 41.234375 54.050781 40.929688 54.414062 40.855469 C 54.765625 40.78125 54.871094 41.117188 54.914062 41.386719 C 54.964844 41.734375 54.957031 42.09375 54.980469 42.5 Z M 54.980469 42.5 "/>
<path style=" stroke:none;fill-rule:nonzero;fill:rgb(0%,0%,0%);fill-opacity:1;" d="M 37.09375 38.195312 C 37.511719 38.21875 37.941406 38.195312 38.347656 38.28125 C 39.703125 38.570312 40.605469 39.914062 40.453125 41.359375 C 40.300781 42.84375 39.203125 43.882812 37.757812 43.898438 C 37.253906 43.90625 36.75 43.90625 36.25 43.898438 C 35.609375 43.886719 35.226562 43.550781 35.214844 42.925781 C 35.191406 41.695312 35.1875 40.460938 35.210938 39.230469 C 35.226562 38.558594 35.601562 38.234375 36.265625 38.21875 C 36.539062 38.214844 36.816406 38.21875 37.089844 38.21875 C 37.089844 38.210938 37.09375 38.203125 37.09375 38.195312 Z M 37.175781 42.089844 C 37.785156 42.175781 38.230469 42.003906 38.453125 41.582031 C 38.671875 41.175781 38.675781 40.765625 38.363281 40.40625 C 38.046875 40.042969 37.652344 39.882812 37.175781 40.03125 C 37.175781 40.742188 37.175781 41.417969 37.175781 42.089844 Z M 37.175781 42.089844 "/>
<path style=" stroke:none;fill-rule:nonzero;fill:rgb(0%,0%,0%);fill-opacity:1;" d="M 34.714844 41.070312 C 34.699219 42.726562 33.417969 44 31.773438 43.992188 C 30.140625 43.984375 28.839844 42.675781 28.847656 41.046875 C 28.855469 39.394531 30.1875 38.097656 31.847656 38.125 C 33.457031 38.148438 34.726562 39.453125 34.714844 41.070312 Z M 30.769531 41.035156 C 30.757812 41.636719 31.230469 42.128906 31.824219 42.140625 C 32.414062 42.148438 32.914062 41.667969 32.929688 41.078125 C 32.941406 40.488281 32.464844 39.996094 31.867188 39.976562 C 31.28125 39.960938 30.777344 40.449219 30.769531 41.035156 Z M 30.769531 41.035156 "/>
<path style=" stroke:none;fill-rule:nonzero;fill:rgb(0%,0%,0%);fill-opacity:1;" d="M 40.691406 42.863281 C 40.730469 42.738281 40.765625 42.546875 40.847656 42.371094 C 41.382812 41.226562 41.925781 40.082031 42.46875 38.941406 C 42.675781 38.496094 42.933594 38.113281 43.503906 38.121094 C 44.066406 38.128906 44.320312 38.515625 44.527344 38.957031 C 45.074219 40.117188 45.632812 41.273438 46.15625 42.441406 C 46.511719 43.238281 46.003906 44.015625 45.222656 43.875 C 44.980469 43.832031 44.679688 43.664062 44.558594 43.460938 C 44.371094 43.148438 44.15625 43.082031 43.84375 43.101562 C 43.617188 43.117188 43.386719 43.125 43.164062 43.101562 C 42.824219 43.066406 42.605469 43.164062 42.417969 43.480469 C 42.175781 43.890625 41.753906 43.992188 41.304688 43.839844 C 40.886719 43.699219 40.726562 43.355469 40.691406 42.863281 Z M 43.859375 41.953125 C 43.734375 41.6875 43.628906 41.464844 43.488281 41.164062 C 43.351562 41.460938 43.253906 41.683594 43.128906 41.953125 C 43.398438 41.953125 43.585938 41.953125 43.859375 41.953125 Z M 43.859375 41.953125 "/>
<path style=" stroke:none;fill-rule:nonzero;fill:rgb(0%,0%,0%);fill-opacity:1;" d="M 46.035156 5.023438 C 45.824219 5.261719 45.675781 5.585938 45.453125 5.648438 C 45.210938 5.710938 44.832031 5.609375 44.644531 5.4375 C 43.894531 4.742188 43.078125 4.179688 42.082031 3.90625 C 40.117188 3.367188 38.371094 3.820312 36.820312 5.105469 C 36.683594 5.21875 36.558594 5.347656 36.425781 5.46875 C 36.03125 5.816406 35.710938 5.835938 35.402344 5.523438 C 35.089844 5.210938 35.0625 4.78125 35.386719 4.433594 C 36.550781 3.183594 37.953125 2.351562 39.667969 2.136719 C 42.011719 1.839844 43.964844 2.644531 45.589844 4.316406 C 45.757812 4.492188 45.859375 4.738281 46.035156 5.023438 Z M 46.035156 5.023438 "/>
<path style=" stroke:none;fill-rule:nonzero;fill:rgb(0%,0%,0%);fill-opacity:1;" d="M 26.234375 39.535156 C 26.476562 39.207031 26.679688 38.917969 26.894531 38.640625 C 27.253906 38.175781 27.777344 38.082031 28.214844 38.390625 C 28.65625 38.703125 28.742188 39.230469 28.429688 39.726562 C 28.316406 39.902344 28.207031 40.089844 28.070312 40.246094 C 27.414062 40.996094 27.074219 41.824219 27.191406 42.859375 C 27.261719 43.488281 26.808594 43.902344 26.234375 43.898438 C 25.660156 43.890625 25.207031 43.476562 25.273438 42.847656 C 25.382812 41.824219 25.066406 40.984375 24.402344 40.234375 C 24.242188 40.054688 24.105469 39.847656 23.988281 39.636719 C 23.734375 39.179688 23.859375 38.664062 24.261719 38.382812 C 24.683594 38.089844 25.222656 38.179688 25.558594 38.601562 C 25.679688 38.753906 25.785156 38.917969 25.902344 39.074219 C 26.003906 39.214844 26.105469 39.355469 26.234375 39.535156 Z M 26.234375 39.535156 "/>
<path style=" stroke:none;fill-rule:nonzero;fill:rgb(0%,0%,0%);fill-opacity:1;" d="M 40.511719 4.886719 C 41.808594 4.925781 42.890625 5.371094 43.773438 6.269531 C 44.164062 6.664062 44.199219 7.136719 43.863281 7.472656 C 43.539062 7.792969 43.195312 7.753906 42.765625 7.34375 C 41.464844 6.109375 39.621094 6.117188 38.308594 7.363281 C 37.917969 7.734375 37.542969 7.777344 37.242188 7.488281 C 36.902344 7.160156 36.902344 6.703125 37.261719 6.320312 C 38.15625 5.378906 39.265625 4.921875 40.511719 4.886719 Z M 40.511719 4.886719 "/>
<path style=" stroke:none;fill-rule:nonzero;fill:rgb(0%,0%,0%);fill-opacity:1;" d="M 40.742188 22.464844 C 40.195312 23.035156 39.484375 23.210938 38.722656 23.25 C 38.371094 23.269531 38.03125 23.195312 38.019531 22.769531 C 38.011719 22.378906 38.332031 22.308594 38.660156 22.25 C 39.050781 22.179688 39.453125 22.097656 39.8125 21.929688 C 40.082031 21.804688 40.234375 21.5625 39.964844 21.21875 C 39.65625 20.832031 39.707031 20.445312 40.019531 20.121094 C 40.355469 19.785156 40.875 19.742188 41.265625 20.019531 C 41.617188 20.269531 41.714844 20.675781 41.53125 21.101562 C 41.339844 21.542969 41.425781 21.847656 41.871094 22.027344 C 42.195312 22.15625 42.554688 22.199219 42.90625 22.253906 C 43.242188 22.304688 43.535156 22.414062 43.5 22.808594 C 43.464844 23.207031 43.152344 23.265625 42.816406 23.253906 C 41.976562 23.21875 41.550781 23.0625 40.742188 22.464844 Z M 40.742188 22.464844 "/>
<path style=" stroke:none;fill-rule:nonzero;fill:rgb(0%,0%,0%);fill-opacity:1;" d="M 38.269531 47.21875 C 38.273438 47.695312 37.894531 48.078125 37.414062 48.089844 C 36.902344 48.101562 36.519531 47.730469 36.519531 47.222656 C 36.519531 46.746094 36.894531 46.351562 37.363281 46.335938 C 37.847656 46.324219 38.265625 46.730469 38.269531 47.21875 Z M 38.269531 47.21875 "/>
<path style=" stroke:none;fill-rule:nonzero;fill:rgb(0%,0%,0%);fill-opacity:1;" d="M 40.503906 46.339844 C 40.992188 46.355469 41.390625 46.785156 41.363281 47.261719 C 41.335938 47.75 40.960938 48.09375 40.472656 48.089844 C 39.960938 48.082031 39.597656 47.695312 39.621094 47.179688 C 39.640625 46.703125 40.039062 46.324219 40.503906 46.339844 Z M 40.503906 46.339844 "/>
<path style=" stroke:none;fill-rule:nonzero;fill:rgb(0%,0%,0%);fill-opacity:1;" d="M 44.449219 47.199219 C 44.460938 47.707031 44.089844 48.09375 43.582031 48.09375 C 43.105469 48.097656 42.722656 47.722656 42.710938 47.242188 C 42.699219 46.753906 43.101562 46.335938 43.585938 46.335938 C 44.050781 46.332031 44.4375 46.71875 44.449219 47.199219 Z M 44.449219 47.199219 "/>
<path style=" stroke:none;fill-rule:nonzero;fill:rgb(0%,0%,0%);fill-opacity:1;" d="M 46.675781 30.496094 C 46.675781 30.050781 46.675781 29.601562 46.671875 29.15625 C 46.671875 28.84375 46.765625 28.585938 47.121094 28.59375 C 47.453125 28.605469 47.523438 28.867188 47.523438 29.152344 C 47.523438 29.976562 47.539062 30.804688 47.511719 31.628906 C 47.503906 31.808594 47.363281 32.105469 47.246094 32.125 C 47.074219 32.152344 46.8125 32.03125 46.6875 31.886719 C 46.234375 31.359375 45.820312 30.796875 45.265625 30.261719 C 45.265625 30.601562 45.265625 30.9375 45.265625 31.273438 C 45.265625 31.453125 45.3125 31.652344 45.246094 31.800781 C 45.175781 31.953125 44.984375 32.160156 44.867188 32.144531 C 44.710938 32.128906 44.457031 31.929688 44.449219 31.796875 C 44.414062 30.859375 44.414062 29.917969 44.441406 28.980469 C 44.445312 28.847656 44.625 28.644531 44.753906 28.617188 C 44.882812 28.585938 45.105469 28.6875 45.199219 28.804688 C 45.667969 29.363281 46.109375 29.941406 46.558594 30.515625 C 46.597656 30.511719 46.636719 30.503906 46.675781 30.496094 Z M 46.675781 30.496094 "/>
<path style=" stroke:none;fill-rule:nonzero;fill:rgb(0%,0%,0%);fill-opacity:1;" d="M 41.359375 30.28125 C 41.359375 30.722656 41.359375 31.167969 41.359375 31.609375 C 41.355469 31.917969 41.28125 32.1875 40.910156 32.167969 C 40.578125 32.152344 40.511719 31.902344 40.515625 31.613281 C 40.519531 30.800781 40.5 29.992188 40.53125 29.179688 C 40.535156 28.992188 40.683594 28.664062 40.796875 28.648438 C 40.980469 28.625 41.25 28.761719 41.382812 28.914062 C 41.832031 29.433594 42.242188 29.988281 42.769531 30.503906 C 42.769531 30.074219 42.773438 29.644531 42.765625 29.21875 C 42.761719 28.898438 42.808594 28.59375 43.203125 28.597656 C 43.5625 28.597656 43.621094 28.882812 43.621094 29.1875 C 43.617188 29.980469 43.640625 30.773438 43.605469 31.566406 C 43.597656 31.769531 43.453125 32.042969 43.289062 32.132812 C 43.1875 32.191406 42.878906 32.011719 42.753906 31.863281 C 42.304688 31.339844 41.898438 30.785156 41.472656 30.246094 C 41.4375 30.257812 41.398438 30.269531 41.359375 30.28125 Z M 41.359375 30.28125 "/>
<path style=" stroke:none;fill-rule:nonzero;fill:rgb(0%,0%,0%);fill-opacity:1;" d="M 30.566406 32.25 C 29.777344 32.261719 29.027344 31.742188 28.765625 31.003906 C 28.496094 30.246094 28.753906 29.402344 29.394531 28.910156 C 30.042969 28.417969 30.980469 28.386719 31.625 28.847656 C 31.753906 28.9375 31.910156 29.050781 31.960938 29.1875 C 32.011719 29.324219 32.011719 29.570312 31.925781 29.65625 C 31.8125 29.765625 31.589844 29.796875 31.417969 29.792969 C 31.3125 29.789062 31.214844 29.640625 31.109375 29.566406 C 30.652344 29.25 30.109375 29.3125 29.75 29.71875 C 29.433594 30.082031 29.425781 30.640625 29.730469 31.019531 C 30.074219 31.4375 30.621094 31.527344 31.082031 31.226562 C 31.175781 31.164062 31.253906 31.03125 31.347656 31.023438 C 31.53125 31.003906 31.789062 30.984375 31.886719 31.089844 C 31.984375 31.191406 32 31.484375 31.925781 31.625 C 31.734375 31.988281 31.105469 32.242188 30.566406 32.25 Z M 30.566406 32.25 "/>
<path style=" stroke:none;fill-rule:nonzero;fill:rgb(0%,0%,0%);fill-opacity:1;" d="M 34.957031 30.773438 C 34.476562 30.773438 34.078125 30.773438 33.621094 30.773438 C 33.621094 31.09375 33.671875 31.390625 33.605469 31.660156 C 33.5625 31.851562 33.359375 32.003906 33.226562 32.175781 C 33.082031 32.015625 32.824219 31.859375 32.816406 31.691406 C 32.777344 30.820312 32.777344 29.941406 32.820312 29.070312 C 32.828125 28.902344 33.082031 28.746094 33.226562 28.582031 C 33.359375 28.753906 33.554688 28.90625 33.605469 29.097656 C 33.671875 29.339844 33.621094 29.609375 33.621094 29.90625 C 34.070312 29.90625 34.476562 29.90625 34.957031 29.90625 C 34.957031 29.640625 34.910156 29.355469 34.976562 29.105469 C 35.027344 28.914062 35.222656 28.761719 35.355469 28.589844 C 35.5 28.75 35.765625 28.902344 35.773438 29.066406 C 35.8125 29.941406 35.792969 30.816406 35.785156 31.691406 C 35.78125 31.964844 35.660156 32.222656 35.367188 32.152344 C 35.203125 32.113281 35.023438 31.855469 34.976562 31.667969 C 34.910156 31.394531 34.957031 31.09375 34.957031 30.773438 Z M 34.957031 30.773438 "/>
<path style=" stroke:none;fill-rule:nonzero;fill:rgb(0%,0%,0%);fill-opacity:1;" d="M 49.246094 29.96875 C 49.535156 29.96875 49.816406 29.929688 50.078125 29.988281 C 50.222656 30.019531 50.332031 30.214844 50.457031 30.339844 C 50.328125 30.457031 50.210938 30.644531 50.0625 30.675781 C 49.804688 30.730469 49.523438 30.691406 49.21875 30.691406 C 49.21875 30.941406 49.21875 31.140625 49.21875 31.40625 C 49.574219 31.40625 49.910156 31.40625 50.246094 31.40625 C 50.511719 31.402344 50.75 31.460938 50.757812 31.78125 C 50.765625 32.101562 50.542969 32.183594 50.265625 32.183594 C 49.796875 32.179688 49.328125 32.179688 48.855469 32.183594 C 48.511719 32.183594 48.351562 32.007812 48.351562 31.675781 C 48.347656 30.816406 48.351562 29.953125 48.351562 29.09375 C 48.351562 28.757812 48.515625 28.582031 48.855469 28.582031 C 49.324219 28.582031 49.796875 28.582031 50.265625 28.582031 C 50.542969 28.582031 50.761719 28.667969 50.757812 28.984375 C 50.753906 29.308594 50.511719 29.363281 50.242188 29.359375 C 50.050781 29.359375 49.855469 29.375 49.660156 29.355469 C 49.230469 29.3125 49.101562 29.496094 49.246094 29.96875 Z M 49.246094 29.96875 "/>
<path style=" stroke:none;fill-rule:nonzero;fill:rgb(0%,0%,0%);fill-opacity:1;" d="M 39.863281 31.824219 C 39.792969 31.902344 39.699219 32.109375 39.578125 32.128906 C 39.425781 32.152344 39.226562 32.050781 39.089844 31.949219 C 38.949219 31.84375 38.875 31.5625 38.746094 31.546875 C 38.332031 31.5 37.90625 31.519531 37.492188 31.5625 C 37.40625 31.570312 37.363281 31.824219 37.257812 31.898438 C 37.09375 32.007812 36.890625 32.0625 36.707031 32.140625 C 36.640625 31.949219 36.476562 31.714844 36.53125 31.574219 C 36.914062 30.648438 37.332031 29.738281 37.761719 28.832031 C 37.945312 28.4375 38.371094 28.394531 38.546875 28.757812 C 38.996094 29.691406 39.398438 30.644531 39.820312 31.589844 C 39.839844 31.628906 39.839844 31.683594 39.863281 31.824219 Z M 38.59375 30.789062 C 38.449219 30.457031 38.324219 30.167969 38.160156 29.78125 C 37.996094 30.183594 37.882812 30.46875 37.753906 30.789062 C 38.0625 30.789062 38.296875 30.789062 38.59375 30.789062 Z M 38.59375 30.789062 "/>
<path style=" stroke:none;fill-rule:nonzero;fill:rgb(0%,0%,0%);fill-opacity:1;" d="M 52.316406 31.402344 C 52.683594 31.402344 52.996094 31.359375 53.285156 31.417969 C 53.464844 31.457031 53.714844 31.628906 53.746094 31.777344 C 53.808594 32.078125 53.558594 32.183594 53.28125 32.179688 C 52.84375 32.179688 52.40625 32.183594 51.972656 32.179688 C 51.65625 32.179688 51.488281 32.015625 51.488281 31.699219 C 51.488281 30.828125 51.464844 29.953125 51.507812 29.078125 C 51.515625 28.910156 51.765625 28.75 51.90625 28.585938 C 52.042969 28.75 52.285156 28.914062 52.296875 29.085938 C 52.339844 29.828125 52.316406 30.570312 52.316406 31.402344 Z M 52.316406 31.402344 "/>
<path style=" stroke:none;fill-rule:nonzero;fill:rgb(0%,0%,0%);fill-opacity:1;" d="M 36.714844 53.695312 C 36.46875 53.949219 36.324219 54.097656 36.175781 54.25 C 36.0625 54.085938 35.859375 53.921875 35.859375 53.757812 C 35.863281 53.574219 36.050781 53.390625 36.15625 53.207031 C 36.308594 53.339844 36.460938 53.476562 36.714844 53.695312 Z M 36.714844 53.695312 "/>
<path style=" stroke:none;fill-rule:nonzero;fill:rgb(0%,0%,0%);fill-opacity:1;" d="M 42.660156 53.699219 C 42.414062 53.953125 42.269531 54.105469 42.125 54.253906 C 42.007812 54.089844 41.800781 53.925781 41.800781 53.761719 C 41.804688 53.574219 41.992188 53.390625 42.101562 53.207031 C 42.253906 53.339844 42.40625 53.476562 42.660156 53.699219 Z M 42.660156 53.699219 "/>
<path style=" stroke:none;fill-rule:nonzero;fill:rgb(0%,0%,0%);fill-opacity:1;" d="M 52.132812 39.882812 C 52.046875 40.851562 51.792969 41.699219 51.261719 42.441406 C 51.113281 42.648438 50.917969 42.832031 50.707031 42.972656 C 50.28125 43.25 49.875 43.09375 49.699219 42.621094 C 49.304688 41.574219 49.972656 39.507812 50.902344 38.878906 C 51.402344 38.539062 51.859375 38.691406 52.03125 39.273438 C 52.09375 39.488281 52.105469 39.71875 52.132812 39.882812 Z M 52.132812 39.882812 "/>
<path style=" stroke:none;fill-rule:nonzero;fill:rgb(0%,0%,0%);fill-opacity:1;" d="M 57.4375 41.109375 C 57.304688 41.152344 57.175781 41.21875 57.039062 41.238281 C 56.789062 41.273438 56.378906 40.824219 56.394531 40.496094 C 56.398438 40.378906 56.546875 40.273438 56.628906 40.164062 C 56.871094 40.382812 57.113281 40.605469 57.359375 40.828125 C 57.382812 40.921875 57.410156 41.015625 57.4375 41.109375 Z M 57.4375 41.109375 "/>
<path style=" stroke:none;fill-rule:nonzero;fill:rgb(0%,0%,0%);fill-opacity:1;" d="M 53.851562 39.53125 C 54.007812 39.328125 54.121094 39.175781 54.238281 39.023438 C 54.339844 39.183594 54.515625 39.34375 54.519531 39.503906 C 54.523438 39.667969 54.355469 39.835938 54.261719 40.003906 C 54.136719 39.863281 54.015625 39.71875 53.851562 39.53125 Z M 53.851562 39.53125 "/>
<path style=" stroke:none;fill-rule:nonzero;fill:rgb(0%,0%,0%);fill-opacity:1;" d="M 52.464844 41.992188 C 52.335938 42.296875 52.207031 42.601562 52.039062 42.984375 C 51.738281 42.496094 51.847656 42.191406 52.296875 41.925781 C 52.351562 41.949219 52.410156 41.972656 52.464844 41.992188 Z M 52.464844 41.992188 "/>
</g>
</svg>
