<?xml version="1.0" encoding="UTF-8"?>
<svg xmlns="http://www.w3.org/2000/svg" xmlns:xlink="http://www.w3.org/1999/xlink" width="58px" height="58px" viewBox="0 0 58 58" version="1.1">
<g id="surface1">
<path style=" stroke:none;fill-rule:nonzero;fill:rgb(0%,0%,0%);fill-opacity:1;" d="M 22.878906 3.867188 C 24.738281 3.617188 26.140625 2.105469 28.035156 2.023438 C 30.066406 1.933594 31.570312 3.585938 33.511719 3.867188 C 32.222656 -0.683594 24.175781 -0.660156 22.878906 3.867188 M 24.8125 5.800781 C 26.011719 5.644531 27.144531 4.886719 28.355469 4.910156 C 29.457031 4.933594 30.5 5.59375 31.578125 5.800781 C 31.007812 2.292969 25.710938 2.671875 24.8125 5.800781 M 16.109375 14.179688 C 18.375 12.582031 20.128906 10.476562 22.878906 9.667969 C 22.097656 5.976562 17.710938 6.90625 15.953125 9.347656 C 14.789062 10.96875 15.46875 12.515625 16.109375 14.179688 M 32.867188 9.34375 C 35.332031 10.785156 37.320312 12.550781 39.632812 14.179688 C 40.378906 12.757812 40.921875 11.210938 40.128906 9.671875 C 38.554688 6.605469 34.472656 6.320312 32.867188 9.34375 M 23.199219 13.726562 C 21.589844 14.050781 19.363281 15.734375 18.984375 17.402344 C 18.613281 19.039062 20.25 20.824219 21.910156 20.46875 C 23.554688 20.117188 25.332031 17.707031 25.628906 16.113281 C 25.914062 14.578125 24.710938 13.425781 23.199219 13.726562 M 32.242188 13.785156 C 28.882812 15.003906 33.175781 21.535156 36.054688 20.339844 C 40.070312 18.675781 35.351562 12.65625 32.242188 13.785156 M 24.488281 14.820312 L 24.488281 16.433594 C 22.96875 16.167969 22.96875 15.085938 24.488281 14.820312 M 33.511719 14.820312 L 33.511719 16.433594 C 31.988281 16.167969 31.988281 15.085938 33.511719 14.820312 M 28.035156 18.042969 C 27.558594 19.476562 27.367188 20.289062 25.777344 20.621094 C 25.777344 21.203125 25.78125 21.113281 26.101562 21.589844 C 26.800781 21.425781 27.546875 21.109375 28.265625 21.0625 C 29.542969 20.980469 30.394531 21.910156 31.253906 20.621094 C 30.460938 20.484375 29.757812 20.257812 29 19.976562 L 29.320312 18.367188 L 28.035156 18.042969 M 39.957031 20.300781 C 39.265625 21.488281 38.457031 22.675781 37.054688 23.058594 C 35.761719 23.417969 34.199219 23.199219 32.867188 23.199219 L 25.132812 23.199219 C 23.546875 23.199219 21.484375 23.539062 19.976562 22.960938 C 18.734375 22.484375 17.988281 21.425781 17.398438 20.300781 C 14.738281 21.082031 11.5 23.488281 10.382812 26.113281 C 9.132812 29.058594 10.566406 32.765625 13.855469 33.402344 C 16 33.816406 18.441406 33.511719 20.621094 33.511719 L 34.15625 33.511719 C 37.097656 33.511719 41.003906 34.183594 43.820312 33.300781 C 46.625 32.421875 48.078125 29.105469 46.972656 26.421875 C 45.777344 23.535156 42.828125 21.296875 39.957031 20.300781 M 43.5 25.132812 C 42.007812 27.640625 41.800781 29.105469 43.5 31.578125 C 38.902344 32.671875 33.398438 31.898438 28.679688 31.898438 C 23.957031 31.898438 18.453125 32.671875 13.855469 31.578125 C 15.289062 29.0625 15.179688 27.664062 13.855469 25.132812 C 17.691406 24.21875 22.167969 24.8125 26.101562 24.8125 C 31.746094 24.8125 37.941406 24.101562 43.5 25.132812 M 19.65625 29 C 17.171875 29.59375 17.132812 27.421875 19.65625 28.035156 C 19.042969 26.285156 16.464844 26.710938 16.609375 28.671875 C 16.746094 30.554688 19.125 30.59375 19.65625 29 M 20.621094 26.746094 L 20.621094 30.289062 L 21.265625 30.289062 L 21.265625 29 L 22.878906 29 L 22.878906 30.289062 L 23.523438 30.289062 L 23.523438 26.746094 L 22.878906 26.746094 C 22.578125 27.75 22.273438 28.054688 21.265625 28.355469 L 21.265625 26.746094 L 20.621094 26.746094 M 25.457031 26.746094 L 24.167969 30.289062 C 25.421875 29.910156 26.152344 29.832031 27.390625 30.289062 C 27.25 28.949219 26.773438 27.902344 26.101562 26.746094 L 25.457031 26.746094 M 28.355469 26.746094 L 28.355469 30.289062 L 29 30.289062 L 29 28.355469 C 29.703125 29.195312 30.269531 29.8125 31.253906 30.289062 L 31.253906 26.746094 L 30.609375 26.746094 L 30.609375 28.679688 C 29.890625 27.945312 29.246094 27.253906 28.355469 26.746094 M 32.222656 26.746094 L 32.222656 30.289062 L 32.867188 30.289062 L 32.867188 28.355469 C 33.570312 29.195312 34.136719 29.8125 35.121094 30.289062 L 35.121094 26.746094 L 34.476562 26.746094 L 34.476562 28.679688 L 32.867188 26.746094 L 32.222656 26.746094 M 36.089844 26.746094 L 36.089844 30.289062 L 38.34375 30.289062 L 38.34375 29.644531 L 36.734375 29.644531 L 36.734375 28.679688 L 38.023438 28.679688 C 37.535156 28.457031 37.277344 28.410156 36.734375 28.355469 L 36.734375 27.390625 L 38.34375 27.390625 L 38.34375 26.746094 L 36.089844 26.746094 M 39.3125 26.746094 L 39.3125 30.289062 L 41.246094 30.289062 L 41.246094 29.644531 L 39.957031 29.644531 L 39.957031 26.746094 L 39.3125 26.746094 M 26.101562 28.035156 L 26.421875 29 L 25.457031 29 C 25.679688 28.550781 25.773438 28.402344 26.101562 28.035156 M 38.347656 35.804688 C 36.402344 36.65625 34.847656 40.816406 37.101562 42.152344 C 38.914062 43.226562 41.074219 42.109375 42.855469 41.6875 C 43.714844 41.484375 44.617188 41.476562 45.414062 41.058594 C 47.144531 40.15625 46.554688 38.300781 45.328125 37.195312 C 44.078125 36.070312 39.925781 35.109375 38.347656 35.804688 M 14.179688 37.699219 C 13.976562 37.492188 13.644531 37.046875 13.351562 36.882812 C 10.738281 35.402344 12.925781 39.84375 13.1875 40.582031 C 13.332031 40.992188 13.527344 41.710938 14.125 41.59375 C 14.878906 41.441406 15.046875 39.886719 15.320312 39.3125 C 15.628906 38.679688 16.285156 37.917969 16.105469 37.160156 C 15.777344 35.785156 14.480469 37.207031 14.179688 37.699219 M 18.378906 36.648438 C 15.140625 37.964844 17.300781 43.183594 20.609375 41.8125 C 24.101562 40.359375 21.816406 35.257812 18.378906 36.648438 M 23.4375 36.742188 C 22.8125 37.25 22.886719 38.269531 22.878906 38.988281 C 22.871094 39.722656 22.769531 40.753906 23.257812 41.371094 C 23.996094 42.304688 26.167969 41.949219 26.992188 41.328125 C 29.886719 39.140625 26.046875 34.632812 23.4375 36.742188 M 30.730469 36.761719 C 29.875 37.234375 27.820312 40.738281 28.886719 41.539062 C 29.527344 42.023438 30.550781 41.414062 31.253906 41.410156 C 31.875 41.40625 32.734375 41.886719 33.3125 41.515625 C 34.511719 40.742188 32.304688 35.890625 30.730469 36.761719 M 42.535156 40.601562 L 42.210938 38.988281 C 41.992188 39.644531 41.875 40.507812 41.375 41.019531 C 40.285156 42.128906 37.640625 42.25 37.050781 40.566406 C 35.460938 36.042969 41.992188 35.824219 44.429688 37.570312 C 47.007812 39.421875 44.425781 40.558594 42.535156 40.601562 M 37.699219 41.246094 C 39.53125 40.328125 39.859375 38.601562 39.3125 36.734375 C 37.527344 37.660156 37.160156 39.398438 37.699219 41.246094 M 41.566406 37.378906 L 41.566406 38.023438 L 42.210938 38.023438 L 42.210938 37.378906 L 41.566406 37.378906 M 19.363281 38.289062 C 20.457031 38.015625 20.941406 39.71875 19.882812 40.035156 C 18.730469 40.378906 18.140625 38.597656 19.363281 38.289062 M 24.8125 40.277344 L 24.8125 38.023438 C 26.449219 38.519531 26.449219 39.78125 24.8125 40.277344 M 44.144531 38.34375 C 44.273438 39.019531 44.214844 38.996094 44.789062 39.3125 C 44.570312 38.800781 44.53125 38.738281 44.144531 38.34375 M 31.253906 39.3125 C 31.574219 39.789062 31.578125 39.699219 31.578125 40.277344 C 31.007812 39.960938 30.949219 39.882812 31.253906 39.3125 M 43.179688 39.3125 L 43.5 39.632812 L 43.179688 39.3125 M 39.742188 40.492188 C 39.722656 40.511719 39.703125 40.851562 39.847656 40.707031 C 39.867188 40.691406 39.882812 40.347656 39.742188 40.492188 M 25.777344 46.078125 L 25.777344 44.464844 C 24.257812 44.730469 24.257812 45.8125 25.777344 46.078125 M 27.90625 44.839844 C 27.347656 45.210938 27.925781 46.078125 28.484375 45.703125 C 29.042969 45.332031 28.464844 44.464844 27.90625 44.839844 M 32.222656 45.753906 C 31.269531 43.378906 29.675781 46.351562 32.222656 45.753906 M 22.5625 49.21875 C 20.257812 50.132812 20.277344 53.261719 22.5625 54.167969 C 24.894531 55.09375 28.449219 54.460938 30.933594 54.457031 C 32.078125 54.453125 33.375 54.535156 34.410156 53.949219 C 36.414062 52.8125 35.792969 49.992188 33.828125 49.21875 C 31.609375 48.339844 28.144531 48.976562 25.777344 48.976562 C 24.746094 48.976562 23.539062 48.828125 22.5625 49.21875 M 23.609375 50.800781 C 24.875 50.285156 25.382812 52.207031 24.355469 52.800781 C 23.105469 53.519531 22.402344 51.296875 23.609375 50.800781 M 27.710938 50.589844 C 27.394531 51.164062 27.417969 51.101562 26.746094 51.234375 C 27.222656 51.550781 27.132812 51.554688 27.710938 51.554688 C 27.5 52.828125 27.03125 53.128906 25.777344 52.84375 C 26.171875 52.460938 26.234375 52.421875 26.746094 52.199219 C 26.3125 51.613281 26.199219 51.3125 26.101562 50.589844 L 27.710938 50.589844 M 29.417969 50.800781 C 30.6875 50.292969 31.324219 52.234375 30.191406 52.789062 C 29.011719 53.367188 28.242188 51.277344 29.417969 50.800781 M 33.511719 50.589844 C 33.296875 51.039062 33.199219 51.171875 32.867188 51.554688 C 33.445312 51.554688 33.355469 51.558594 33.832031 51.878906 C 33.136719 53.644531 31.394531 52.515625 32.867188 52.199219 C 32.390625 51.882812 32.480469 51.878906 31.898438 51.878906 L 31.898438 50.589844 L 33.511719 50.589844 M 23.523438 51.234375 L 23.523438 52.199219 L 24.167969 52.199219 L 24.167969 51.234375 L 23.523438 51.234375 M 29.644531 51.234375 L 29.644531 52.199219 C 29.867188 51.699219 29.867188 51.734375 29.644531 51.234375 Z M 29.644531 51.234375 "/>
</g>
</svg>
