<?xml version="1.0" standalone="yes"?>
<svg xmlns="http://www.w3.org/2000/svg" width="58px" height="58px" viewBox="0 0 58 58">
<path style="fill:#000000; stroke:none;" d="M71 12C76.7794 11.2313 81.1304 6.53745 87 6.27855C93.3047 6.00046 97.978 11.1246 104 12C100.001 -2.12659 75.0307 -2.05438 71 12M77 18C80.7285 17.5148 84.2469 15.1683 88 15.2407C91.4132 15.3066 94.6543 17.3645 98 18C96.2283 7.11357 79.7905 8.29749 77 18M50 44C57.0317 39.0514 62.467 32.5109 71 30C68.5777 18.5443 54.9693 21.4342 49.5139 29.0154C45.8989 34.039 48.0122 38.8382 50 44M102 29C109.649 33.4696 115.827 38.9521 123 44C125.313 39.5878 126.999 34.7959 124.543 30.0154C119.655 20.4986 106.99 19.6133 102 29M71.9992 42.6019C67.0033 43.6033 60.0884 48.8318 58.9159 54.0039C57.7645 59.0828 62.8441 64.6281 67.9969 63.5224C73.0997 62.4274 78.6111 54.9501 79.537 50.0008C80.4264 45.2465 76.6892 41.6617 71.9992 42.6019M100.059 42.7824C89.637 46.5695 102.957 66.8348 111.895 63.1265C124.351 57.9588 109.71 39.2754 100.059 42.7824M76 46L76 51C71.2791 50.1759 71.2791 46.8241 76 46M104 46L104 51C99.2791 50.176 99.2791 46.8241 104 46M87 56C85.5276 60.448 84.9291 62.9721 80 64C80 65.7968 80.0143 65.5215 81 67C83.171 66.4918 85.4884 65.5125 87.716 65.3704C91.6865 65.117 94.3266 68.0019 97 64C94.5309 63.5736 92.3546 62.8676 90 62L91 57L87 56M124 63C121.862 66.6873 119.354 70.3693 114.999 71.5664C110.982 72.6707 106.132 72 102 72L78 72C73.0742 72 66.6718 73.0509 62.0008 71.2577C58.1462 69.7779 55.8197 66.4977 54 63C45.7347 65.4322 35.6857 72.8939 32.2245 81.0394C28.3414 90.1778 32.7933 101.687 43 103.66C49.6563 104.946 57.2371 104 64 104L106 104C115.125 104 127.255 106.09 136 103.347C144.704 100.617 149.213 90.3242 145.772 82C142.07 73.0422 132.911 66.0895 124 63M135 78C130.366 85.7784 129.722 90.3244 135 98C120.728 101.398 103.646 99 89 99C74.3544 99 57.2715 101.398 43 98C47.4548 90.1948 47.1128 85.8595 43 78C54.9006 75.1667 68.7995 77 81 77C98.5239 77 117.751 74.7977 135 78M61 90C53.2927 91.8469 53.1681 85.1066 61 87C59.0937 81.5795 51.1017 82.8961 51.5463 88.9853C51.9725 94.8224 59.3581 94.9463 61 90M64 83L64 94L66 94L66 90L71 90L71 94L73 94L73 83L71 83C70.0658 86.1266 69.1266 87.0658 66 88L66 83L64 83M79 83L75 94C78.8991 92.8232 81.1642 92.5822 85 94C84.5736 89.8376 83.0898 86.5982 81 83L79 83M88 83L88 94L90 94L90 88C92.1845 90.6093 93.9416 92.5172 97 94L97 83L95 83L95 89C92.7614 86.7269 90.7632 84.5759 88 83M100 83L100 94L102 94L102 88C104.184 90.6093 105.942 92.5172 109 94L109 83L107 83L107 89L102 83L100 83M112 83L112 94L119 94L119 92L114 92L114 89L118 89C116.494 88.317 115.685 88.1741 114 88L114 85L119 85L119 83L112 83M122 83L122 94L128 94L128 92L124 92L124 83L122 83M81 87L82 90L79 90C79.6913 88.6116 79.9846 88.1394 81 87M119.005 111.117C112.969 113.765 108.145 126.674 115.148 130.821C120.764 134.146 127.47 130.686 133 129.375C135.661 128.744 138.464 128.726 140.941 127.427C146.305 124.617 144.48 118.862 140.671 115.43C136.797 111.939 123.911 108.965 119.005 111.117M44 117C43.3797 116.356 42.3402 114.975 41.436 114.463C33.3254 109.872 40.1091 123.658 40.9236 125.941C41.3808 127.222 41.9787 129.443 43.831 129.079C46.1795 128.617 46.6912 123.784 47.5517 122C48.4984 120.037 50.5438 117.672 49.9807 115.323C48.9582 111.056 44.9396 115.466 44 117M57.044 113.742C46.9826 117.82 53.6898 134.024 63.9568 129.757C74.8005 125.25 67.7052 109.421 57.044 113.742M72.7423 114.028C70.7962 115.602 71.0241 118.768 71.0046 121C70.9848 123.279 70.6631 126.483 72.179 128.397C74.475 131.296 81.2169 130.188 83.7716 128.258C92.7541 121.47 80.8377 107.479 72.7423 114.028M95.3719 114.086C92.712 115.559 86.3348 126.427 89.6466 128.918C91.6356 130.415 94.8141 128.528 97 128.518C98.9277 128.508 101.594 129.996 103.381 128.843C107.108 126.439 100.26 111.38 95.3719 114.086M132 126L131 121C130.326 123.038 129.958 125.71 128.4 127.299C125.017 130.747 116.82 131.123 114.983 125.891C110.054 111.852 130.323 111.174 137.891 116.603C145.892 122.341 137.877 125.874 132 126M117 128C122.679 125.161 123.699 119.801 122 114C116.459 116.881 115.323 122.272 117 128M129 116L129 118L131 118L131 116L129 116M60.0941 118.832C63.4898 117.983 64.9951 123.266 61.7006 124.249C58.1235 125.316 56.2976 119.781 60.0941 118.832M77 125L77 118C82.0778 119.547 82.0778 123.453 77 125M137 119C137.406 121.092 137.217 121.02 139 122C138.316 120.42 138.195 120.223 137 119M97 122C97.9857 123.479 98 123.203 98 125C96.2337 124.021 96.0445 123.778 97 122M134 122L135 123L134 122M123.333 125.667C123.278 125.722 123.222 126.778 123.667 126.333C123.722 126.278 123.778 125.222 123.333 125.667M80 143L80 138C75.2791 138.824 75.2791 142.176 80 143M86.6026 139.157C84.8698 140.314 86.6642 143.001 88.3974 141.843C90.1301 140.686 88.3358 137.999 86.6026 139.157M100 142C97.049 134.627 92.0924 143.849 100 142M70.0185 152.742C62.8728 155.581 62.9275 165.289 70.0185 168.106C77.2602 170.983 88.295 169.012 96 169C99.5522 168.994 103.577 169.246 106.786 167.427C113.004 163.905 111.087 155.149 104.985 152.742C98.0956 150.025 87.3392 152 80 152C76.8029 152 73.0551 151.536 70.0185 152.742M73.2739 157.662C77.1947 156.058 78.7696 162.024 75.5818 163.863C71.7105 166.097 69.5259 159.195 73.2739 157.662M86 157C85.0198 158.783 85.0924 158.594 83 159C84.4785 159.986 84.2032 160 86 160C85.341 163.952 83.8908 164.886 80 164C81.2228 162.805 81.42 162.684 83 162C81.6638 160.174 81.3096 159.247 81 157L86 157M91.2994 157.662C95.2425 156.076 97.2094 162.105 93.7006 163.824C90.0316 165.621 87.6447 159.132 91.2994 157.662M104 157C103.339 158.396 103.036 158.814 102 160C103.797 160 103.521 160.014 105 161C102.841 166.485 97.429 162.981 102 162C100.521 161.014 100.797 161 99 161L99 157L104 157M73 159L73 162L75 162L75 159L73 159M92 159L92 162C92.6961 160.446 92.6961 160.554 92 159z"/>
</svg>
